{
    "asset" : {
        "generator" : "Khronos glTF Blender I/O v1.5.17",
        "version" : "2.0"
    },
    "scene" : 0,
    "scenes" : [
        {
            "name" : "Scene",
            "nodes" : [
                0,
                1,
                2,
                3
            ]
        }
    ],
    "nodes" : [
        {
            "name" : "Light",
            "rotation" : [
                0.16907575726509094,
                0.7558803558349609,
                -0.27217137813568115,
                0.570947527885437
            ],
            "translation" : [
                4.076245307922363,
                5.903861999511719,
                -1.0054539442062378
            ]
        },
        {
            "name" : "Camera",
            "rotation" : [
                0.483536034822464,
                0.33687159419059753,
                -0.20870360732078552,
                0.7804827094078064
            ],
            "translation" : [
                7.358891487121582,
                4.958309173583984,
                6.925790786743164
            ]
        },
        {
            "mesh" : 0,
            "name" : "path3741",
            "scale" : [
                5.518049716949463,
                5.518049716949463,
                5.518049716949463
            ]
        },
        {
            "mesh" : 1,
            "name" : "path3743",
            "scale" : [
                5.518049716949463,
                5.518049716949463,
                5.518049716949463
            ]
        }
    ],
    "materials" : [
        {
            "doubleSided" : true,
            "name" : "SVGMat.004",
            "pbrMetallicRoughness" : {
                "baseColorFactor" : [
                    0,
                    0,
                    0,
                    1
                ],
                "metallicFactor" : 0,
                "roughnessFactor" : 0.4000000059604645
            }
        },
        {
            "doubleSided" : true,
            "name" : "SVGMat.005",
            "pbrMetallicRoughness" : {
                "baseColorFactor" : [
                    1,
                    0.2158605009317398,
                    0.2158605009317398,
                    1
                ],
                "metallicFactor" : 0,
                "roughnessFactor" : 0.4000000059604645
            }
        }
    ],
    "meshes" : [
        {
            "name" : "path3741.001",
            "primitives" : [
                {
                    "attributes" : {
                        "POSITION" : 0,
                        "NORMAL" : 1,
                        "TEXCOORD_0" : 2
                    },
                    "indices" : 3,
                    "material" : 0
                }
            ]
        },
        {
            "name" : "path3743",
            "primitives" : [
                {
                    "attributes" : {
                        "POSITION" : 4,
                        "NORMAL" : 5,
                        "TEXCOORD_0" : 6
                    },
                    "indices" : 7,
                    "material" : 1
                }
            ]
        }
    ],
    "accessors" : [
        {
            "bufferView" : 0,
            "componentType" : 5126,
            "count" : 3624,
            "max" : [
                0.13301214575767517,
                0.019999999552965164,
                -0.008110755123198032
            ],
            "min" : [
                0.015211108140647411,
                -0.019999999552965164,
                -0.13881461322307587
            ],
            "type" : "VEC3"
        },
        {
            "bufferView" : 1,
            "componentType" : 5126,
            "count" : 3624,
            "type" : "VEC3"
        },
        {
            "bufferView" : 2,
            "componentType" : 5126,
            "count" : 3624,
            "type" : "VEC2"
        },
        {
            "bufferView" : 3,
            "componentType" : 5123,
            "count" : 6564,
            "type" : "SCALAR"
        },
        {
            "bufferView" : 4,
            "componentType" : 5126,
            "count" : 2039,
            "max" : [
                0.12792658805847168,
                0.019999999552965164,
                -0.017304204404354095
            ],
            "min" : [
                0.01999262347817421,
                -0.019999999552965164,
                -0.13419795036315918
            ],
            "type" : "VEC3"
        },
        {
            "bufferView" : 5,
            "componentType" : 5126,
            "count" : 2039,
            "type" : "VEC3"
        },
        {
            "bufferView" : 6,
            "componentType" : 5126,
            "count" : 2039,
            "type" : "VEC2"
        },
        {
            "bufferView" : 7,
            "componentType" : 5123,
            "count" : 3768,
            "type" : "SCALAR"
        }
    ],
    "bufferViews" : [
        {
            "buffer" : 0,
            "byteLength" : 43488,
            "byteOffset" : 0
        },
        {
            "buffer" : 0,
            "byteLength" : 43488,
            "byteOffset" : 43488
        },
        {
            "buffer" : 0,
            "byteLength" : 28992,
            "byteOffset" : 86976
        },
        {
            "buffer" : 0,
            "byteLength" : 13128,
            "byteOffset" : 115968
        },
        {
            "buffer" : 0,
            "byteLength" : 24468,
            "byteOffset" : 129096
        },
        {
            "buffer" : 0,
            "byteLength" : 24468,
            "byteOffset" : 153564
        },
        {
            "buffer" : 0,
            "byteLength" : 16312,
            "byteOffset" : 178032
        },
        {
            "buffer" : 0,
            "byteLength" : 7536,
            "byteOffset" : 194344
        }
    ],
    "buffers" : [
        {
            "byteLength" : 201880,
            "uri" : "data:application/octet-stream;base64,"
        }
    ]
}
