<?xml version="1.0" encoding="UTF-8" standalone="no"?>
<!-- Created with Inkscape (http://www.inkscape.org/) -->

<svg
   xmlns:dc="http://purl.org/dc/elements/1.1/"
   xmlns:cc="http://creativecommons.org/ns#"
   xmlns:rdf="http://www.w3.org/1999/02/22-rdf-syntax-ns#"
   xmlns:svg="http://www.w3.org/2000/svg"
   xmlns="http://www.w3.org/2000/svg"
   xmlns:sodipodi="http://sodipodi.sourceforge.net/DTD/sodipodi-0.dtd"
   xmlns:inkscape="http://www.inkscape.org/namespaces/inkscape"
   version="1.1"
   id="svg10"
   width="512"
   height="512"
   viewBox="0 0 512 512"
   sodipodi:docname="letterC.svg"
   inkscape:version="0.92.4 (5da689c313, 2019-01-14)">
  <metadata
     id="metadata16">
    <rdf:RDF>
      <cc:Work
         rdf:about="">
        <dc:format>image/svg+xml</dc:format>
        <dc:type
           rdf:resource="http://purl.org/dc/dcmitype/StillImage" />
        <dc:title></dc:title>
      </cc:Work>
    </rdf:RDF>
  </metadata>
  <defs
     id="defs14" />
  <sodipodi:namedview
     pagecolor="#ffffff"
     bordercolor="#666666"
     borderopacity="1"
     objecttolerance="10"
     gridtolerance="10"
     guidetolerance="10"
     inkscape:pageopacity="0"
     inkscape:pageshadow="2"
     inkscape:window-width="1920"
     inkscape:window-height="1121"
     id="namedview12"
     showgrid="false"
     inkscape:zoom="1.7539062"
     inkscape:cx="256"
     inkscape:cy="256"
     inkscape:window-x="-9"
     inkscape:window-y="-9"
     inkscape:window-maximized="1"
     inkscape:current-layer="svg10" />
  <path
     style="fill:#000000"
     d="M 256.90094,491.02531 C 175.7997,485.08339 122.3834,450.10245 88.141106,380.50891 70.468495,344.59135 62.459169,307.39292 62.411133,261.00891 62.379273,230.24356 64.547171,211.70669 71.257243,185.36924 90.226448,110.91391 144.6533,55.15725 217.0108,36.054488 c 59.68389,-15.756861 122.67396,-7.364113 172.18878,22.942299 35.70772,21.855533 62.98577,56.088993 70.52862,88.512123 4.1886,18.00484 3.5659,27.78333 -2.56405,40.26385 -4.72231,9.6146 -11.68398,16.49284 -21.37932,21.12308 -7.21557,3.44597 -8.05105,3.61239 -18.06545,3.59834 -16.01509,-0.0225 -24.36315,-3.46233 -33.62709,-13.85624 -4.46479,-5.00938 -7.4215,-9.64614 -22.08179,-34.62903 -10.53153,-17.94697 -26.76616,-34.0649 -41.70603,-41.40622 -23.58089,-11.58743 -58.7742,-12.17553 -84.97537,-1.41997 -15.49246,6.35964 -32.51238,20.88552 -43.05805,36.74847 -13.46401,20.25276 -21.75517,46.28274 -24.62406,77.3069 -1.76407,19.07662 -0.72888,57.07547 1.96883,72.27082 8.07058,45.45887 26.55068,74.04442 57.55031,89.0205 11.29862,5.45843 21.87613,8.23479 36.14187,9.48645 25.06059,2.19878 48.61757,-2.92757 66.4435,-14.45911 18.18978,-11.76691 31.97742,-30.32555 40.52482,-54.54784 6.11513,-17.32953 14.40046,-30.79619 22.07471,-35.8794 7.70483,-5.10348 13.60039,-6.62795 25.36835,-6.55975 8.42923,0.0488 11.62901,0.50489 16.22477,2.3124 12.70379,4.99643 23.0108,15.66897 27.46584,28.43989 2.33128,6.68293 2.29012,24.96538 -0.0802,35.60199 -6.44855,28.93771 -20.96072,54.365 -44.61044,78.16352 -27.11486,27.28548 -61.30839,44.01989 -101.9433,49.89136 -15.9136,2.2994 -41.88676,3.21778 -57.87514,2.04639 z m 44.96249,-16.07681 c 31.57321,-3.23298 57.54265,-12.27432 82.344,-28.6683 11.86549,-7.84322 30.06091,-25.6449 38.82367,-37.98354 16.38813,-23.07573 25.62669,-49.66181 24.49243,-70.48257 -0.51932,-9.53284 -2.02351,-13.07974 -8.13551,-19.18366 -6.31997,-6.31162 -10.64815,-8.01964 -21.40451,-8.44682 -7.87976,-0.31294 -9.88689,-0.0516 -13.6697,1.77959 -6.95,3.36443 -12.24476,11.43566 -18.43212,28.09755 -19.69357,53.03263 -53.8431,79.4108 -105.66231,81.61691 -42.11964,1.79316 -75.95569,-12.91069 -98.47207,-42.79217 -14.91236,-19.79019 -23.89674,-43.74225 -28.64876,-76.37658 -2.20777,-15.16185 -2.5315,-57.81624 -0.55783,-73.5 3.22097,-25.59541 8.8542,-45.55998 18.19941,-64.5 21.19994,-42.96612 58.7478,-66.40767 106.47925,-66.47617 45.84767,-0.0658 77.97557,20.72685 103.48864,66.97617 11.22964,20.35675 18.30772,28.87777 25.69058,30.92788 6.21818,1.72669 18.24127,1.29568 22.82078,-0.81809 4.84865,-2.23799 10.78002,-8.05899 14.28346,-14.01768 5.42294,-9.22339 3.61815,-28.69649 -4.23493,-45.69345 C 422.78913,99.74141 385.51231,68.525517 342.16722,54.094709 287.29171,35.825101 220.82182,42.553353 172.53335,71.265482 148.69284,85.44095 125.62122,108.02114 110.97881,131.50891 90.117516,164.9723 79.415555,203.64711 78.024217,250.60037 c -2.040964,68.87602 16.242472,125.27595 54.917983,169.40854 22.41611,25.579 54.43081,43.52871 90.77718,50.89611 8.65627,1.75463 22.2506,3.61335 32.5,4.44365 9.83571,0.79678 36.21305,0.56553 45.64405,-0.40017 z"
     id="path64"
     inkscape:connector-curvature="0" />
  <path
     style="fill:#ff5555;stroke-width:0.57015592"
     d="M 253.71938,474.88737 C 222.04052,471.52044 203.66914,466.83421 182.73497,456.78044 157.15284,444.49446 137.04954,427.18967 119.34268,402.21275 97.0131,370.71511 83.859063,333.70684 79.451692,289.98129 78.209352,277.65602 78.04284,246.56813 79.152416,234.10601 83.644179,183.65711 99.245164,143.13855 126.58871,110.90541 153.85374,78.764843 190.1536,57.494492 232.5316,48.826857 c 16.41283,-3.356941 25.42419,-4.230723 43.99401,-4.265858 20.83323,-0.03942 32.41744,1.207374 49.89771,5.370416 48.27843,11.497828 90.94972,43.104114 110.70925,82.001475 6.27021,12.34312 9.00354,22.89842 8.96228,34.60965 -0.0294,8.32977 -0.88135,11.64994 -4.26758,16.63022 -2.85641,4.20106 -8.74812,9.63563 -12.37923,11.41874 -3.16845,1.55591 -3.51089,1.59915 -12.66408,1.59915 -11.23885,0 -12.77188,-0.50034 -18.55846,-6.05689 -4.55888,-4.37767 -8.54457,-10.17804 -16.79825,-24.44645 -7.58741,-13.11661 -11.4066,-18.90336 -17.64013,-26.72786 -22.23729,-27.91291 -50.05692,-41.120697 -86.61272,-41.120697 -46.92947,0 -84.54841,23.074737 -105.74145,64.859797 -9.36359,18.46164 -14.93541,37.13316 -18.67168,62.57005 -1.53632,10.45943 -2.15214,43.72365 -1.14404,61.79685 2.00844,36.00729 12.34878,68.23407 29.16303,90.88972 18.16703,24.47843 42.65408,38.62963 74.36451,42.97567 9.39777,1.288 27.79653,1.26174 37.53964,-0.0536 31.47989,-4.24979 55.02685,-17.74374 72.92197,-41.78904 8.02298,-10.78032 13.17015,-20.56669 20.82886,-39.60214 5.19521,-12.91249 8.36477,-18.78476 12.38881,-22.95281 4.41371,-4.57166 7.26182,-5.7027 14.93794,-5.93218 12.87702,-0.38496 18.30506,1.42848 25.40042,8.48592 5.65495,5.62473 7.08889,8.62553 7.82787,16.38142 2.21364,23.2327 -10.19996,56.46895 -29.75345,79.66209 -5.58448,6.62398 -19.86891,20.62251 -26.21692,25.69221 -13.6511,10.90215 -34.5533,21.40667 -53.78681,27.03087 -19.66796,5.75124 -34.07027,7.46421 -61.68905,7.33712 -10.90602,-0.0502 -20.72712,-0.18667 -21.82467,-0.30333 z"
     id="path66"
     inkscape:connector-curvature="0" />
</svg>
