{
    "asset" : {
        "generator" : "Khronos glTF Blender I/O v1.5.17",
        "version" : "2.0"
    },
    "scene" : 0,
    "scenes" : [
        {
            "name" : "Scene",
            "nodes" : [
                0
            ]
        }
    ],
    "nodes" : [
        {
            "mesh" : 0,
            "name" : "Cube",
            "rotation" : [
                0,
                0,
                -0.33345314860343933,
                0.9427666664123535
            ],
            "scale" : [
                0.5361199378967285,
                0.5361199378967285,
                0.5361198782920837
            ],
            "translation" : [
                -4.646442413330078,
                2.4631738662719727,
                0
            ]
        }
    ],
    "materials" : [
        {
            "doubleSided" : true,
            "name" : "Material",
            "pbrMetallicRoughness" : {
                "metallicFactor" : 0,
                "roughnessFactor" : 0.4000000059604645
            }
        }
    ],
    "meshes" : [
        {
            "name" : "Cube",
            "primitives" : [
                {
                    "attributes" : {
                        "POSITION" : 0,
                        "NORMAL" : 1,
                        "TEXCOORD_0" : 2,
                        "COLOR_0" : 3
                    },
                    "indices" : 4,
                    "material" : 0
                }
            ]
        }
    ],
    "accessors" : [
        {
            "bufferView" : 0,
            "componentType" : 5126,
            "count" : 1503,
            "max" : [
                7.700411319732666,
                7.42889928817749,
                1.2292588949203491
            ],
            "min" : [
                -1.9136580228805542,
                -1.2461862564086914,
                -1.30517578125
            ],
            "type" : "VEC3"
        },
        {
            "bufferView" : 1,
            "componentType" : 5126,
            "count" : 1503,
            "type" : "VEC3"
        },
        {
            "bufferView" : 2,
            "componentType" : 5126,
            "count" : 1503,
            "type" : "VEC2"
        },
        {
            "bufferView" : 3,
            "componentType" : 5123,
            "count" : 1503,
            "normalized" : true,
            "type" : "VEC4"
        },
        {
            "bufferView" : 4,
            "componentType" : 5123,
            "count" : 7680,
            "type" : "SCALAR"
        }
    ],
    "bufferViews" : [
        {
            "buffer" : 0,
            "byteLength" : 18036,
            "byteOffset" : 0
        },
        {
            "buffer" : 0,
            "byteLength" : 18036,
            "byteOffset" : 18036
        },
        {
            "buffer" : 0,
            "byteLength" : 12024,
            "byteOffset" : 36072
        },
        {
            "buffer" : 0,
            "byteLength" : 12024,
            "byteOffset" : 48096
        },
        {
            "buffer" : 0,
            "byteLength" : 15360,
            "byteOffset" : 60120
        }
    ],
    "buffers" : [
        {
            "byteLength" : 75480,
            "uri" : "banana.bin"
        }
    ]
}
