{
    "asset" : {
        "generator" : "Khronos glTF Blender I/O v1.5.17",
        "version" : "2.0"
    },
    "scene" : 0,
    "scenes" : [
        {
            "name" : "Scene",
            "nodes" : [
                0,
                1,
                2,
                3,
                4,
                5
            ]
        }
    ],
    "nodes" : [
        {
            "name" : "Light",
            "rotation" : [
                0.16907575726509094,
                0.7558803558349609,
                -0.27217137813568115,
                0.570947527885437
            ],
            "translation" : [
                4.076245307922363,
                5.903861999511719,
                -1.0054539442062378
            ]
        },
        {
            "name" : "Camera",
            "rotation" : [
                0.483536034822464,
                0.33687159419059753,
                -0.20870360732078552,
                0.7804827094078064
            ],
            "translation" : [
                7.358891487121582,
                4.958309173583984,
                6.925790786743164
            ]
        },
        {
            "mesh" : 0,
            "name" : "path60",
            "scale" : [
                8.574267387390137,
                8.574267387390137,
                8.574267387390137
            ]
        },
        {
            "mesh" : 1,
            "name" : "path20",
            "scale" : [
                7.462628364562988,
                7.462628364562988,
                7.462628364562988
            ]
        },
        {
            "mesh" : 2,
            "name" : "path40",
            "scale" : [
                1.275852918624878,
                1.275852918624878,
                1.275852918624878
            ]
        },
        {
            "mesh" : 3,
            "name" : "path80",
            "scale" : [
                9.801689147949219,
                9.801689147949219,
                9.801689147949219
            ]
        }
    ],
    "materials" : [
        {
            "doubleSided" : true,
            "name" : "SVGMat.001",
            "pbrMetallicRoughness" : {
                "baseColorFactor" : [
                    0,
                    0,
                    0,
                    1
                ],
                "metallicFactor" : 0,
                "roughnessFactor" : 0.4000000059604645
            }
        },
        {
            "doubleSided" : true,
            "name" : "SVGMat.003",
            "pbrMetallicRoughness" : {
                "baseColorFactor" : [
                    0,
                    0,
                    0,
                    1
                ],
                "metallicFactor" : 0,
                "roughnessFactor" : 0.4000000059604645
            }
        },
        {
            "doubleSided" : true,
            "name" : "SVGMat.005",
            "pbrMetallicRoughness" : {
                "baseColorFactor" : [
                    0,
                    0,
                    0,
                    1
                ],
                "metallicFactor" : 0,
                "roughnessFactor" : 0.4000000059604645
            }
        },
        {
            "doubleSided" : true,
            "name" : "SVGMat.007",
            "pbrMetallicRoughness" : {
                "baseColorFactor" : [
                    0,
                    0,
                    0,
                    1
                ],
                "metallicFactor" : 0,
                "roughnessFactor" : 0.4000000059604645
            }
        }
    ],
    "meshes" : [
        {
            "name" : "path60",
            "primitives" : [
                {
                    "attributes" : {
                        "POSITION" : 0,
                        "NORMAL" : 1,
                        "TEXCOORD_0" : 2
                    },
                    "indices" : 3,
                    "material" : 0
                }
            ]
        },
        {
            "name" : "path20",
            "primitives" : [
                {
                    "attributes" : {
                        "POSITION" : 4,
                        "NORMAL" : 5,
                        "TEXCOORD_0" : 6
                    },
                    "indices" : 7,
                    "material" : 1
                }
            ]
        },
        {
            "name" : "path40",
            "primitives" : [
                {
                    "attributes" : {
                        "POSITION" : 8,
                        "NORMAL" : 9,
                        "TEXCOORD_0" : 10
                    },
                    "indices" : 11,
                    "material" : 2
                }
            ]
        },
        {
            "name" : "path80",
            "primitives" : [
                {
                    "attributes" : {
                        "POSITION" : 12,
                        "NORMAL" : 13,
                        "TEXCOORD_0" : 14
                    },
                    "indices" : 15,
                    "material" : 3
                }
            ]
        }
    ],
    "accessors" : [
        {
            "bufferView" : 0,
            "componentType" : 5126,
            "count" : 3293,
            "max" : [
                0.12176396697759628,
                0.019999999552965164,
                6.870043580420315e-05
            ],
            "min" : [
                0.001010684296488762,
                -0.019999999552965164,
                -0.18721109628677368
            ],
            "type" : "VEC3"
        },
        {
            "bufferView" : 1,
            "componentType" : 5126,
            "count" : 3293,
            "type" : "VEC3"
        },
        {
            "bufferView" : 2,
            "componentType" : 5126,
            "count" : 3293,
            "type" : "VEC2"
        },
        {
            "bufferView" : 3,
            "componentType" : 5123,
            "count" : 5904,
            "type" : "SCALAR"
        },
        {
            "bufferView" : 4,
            "componentType" : 5126,
            "count" : 819,
            "max" : [
                0.17274364829063416,
                0.019999999552965164,
                -0.011342033743858337
            ],
            "min" : [
                0.063239187002182,
                -0.019999999552965164,
                -0.2068847268819809
            ],
            "type" : "VEC3"
        },
        {
            "bufferView" : 5,
            "componentType" : 5126,
            "count" : 819,
            "type" : "VEC3"
        },
        {
            "bufferView" : 6,
            "componentType" : 5126,
            "count" : 819,
            "type" : "VEC2"
        },
        {
            "bufferView" : 7,
            "componentType" : 5123,
            "count" : 1572,
            "type" : "SCALAR"
        },
        {
            "bufferView" : 8,
            "componentType" : 5126,
            "count" : 2963,
            "max" : [
                1.099147081375122,
                0.03999999910593033,
                -0.016669631004333496
            ],
            "min" : [
                0.24601981043815613,
                -0.03999999910593033,
                -1.2908896207809448
            ],
            "type" : "VEC3"
        },
        {
            "bufferView" : 9,
            "componentType" : 5126,
            "count" : 2963,
            "type" : "VEC3"
        },
        {
            "bufferView" : 10,
            "componentType" : 5126,
            "count" : 2963,
            "type" : "VEC2"
        },
        {
            "bufferView" : 11,
            "componentType" : 5123,
            "count" : 5388,
            "type" : "SCALAR"
        },
        {
            "bufferView" : 12,
            "componentType" : 5126,
            "count" : 64612,
            "max" : [
                0.07006373256444931,
                0.009999999776482582,
                0.000281316606560722
            ],
            "min" : [
                -9.453250822843984e-05,
                -0.009999999776482582,
                -0.08682192116975784
            ],
            "type" : "VEC3"
        },
        {
            "bufferView" : 13,
            "componentType" : 5126,
            "count" : 64612,
            "type" : "VEC3"
        },
        {
            "bufferView" : 14,
            "componentType" : 5126,
            "count" : 64612,
            "type" : "VEC2"
        },
        {
            "bufferView" : 15,
            "componentType" : 5123,
            "count" : 116628,
            "type" : "SCALAR"
        }
    ],
    "bufferViews" : [
        {
            "buffer" : 0,
            "byteLength" : 39516,
            "byteOffset" : 0
        },
        {
            "buffer" : 0,
            "byteLength" : 39516,
            "byteOffset" : 39516
        },
        {
            "buffer" : 0,
            "byteLength" : 26344,
            "byteOffset" : 79032
        },
        {
            "buffer" : 0,
            "byteLength" : 11808,
            "byteOffset" : 105376
        },
        {
            "buffer" : 0,
            "byteLength" : 9828,
            "byteOffset" : 117184
        },
        {
            "buffer" : 0,
            "byteLength" : 9828,
            "byteOffset" : 127012
        },
        {
            "buffer" : 0,
            "byteLength" : 6552,
            "byteOffset" : 136840
        },
        {
            "buffer" : 0,
            "byteLength" : 3144,
            "byteOffset" : 143392
        },
        {
            "buffer" : 0,
            "byteLength" : 35556,
            "byteOffset" : 146536
        },
        {
            "buffer" : 0,
            "byteLength" : 35556,
            "byteOffset" : 182092
        },
        {
            "buffer" : 0,
            "byteLength" : 23704,
            "byteOffset" : 217648
        },
        {
            "buffer" : 0,
            "byteLength" : 10776,
            "byteOffset" : 241352
        },
        {
            "buffer" : 0,
            "byteLength" : 775344,
            "byteOffset" : 252128
        },
        {
            "buffer" : 0,
            "byteLength" : 775344,
            "byteOffset" : 1027472
        },
        {
            "buffer" : 0,
            "byteLength" : 516896,
            "byteOffset" : 1802816
        },
        {
            "buffer" : 0,
            "byteLength" : 233256,
            "byteOffset" : 2319712
        }
    ],
    "buffers" : [
        {
            "byteLength" : 2552968,
            "uri" : "cat.bin"
        }
    ]
}
