{
    "asset" : {
        "generator" : "Khronos glTF Blender I/O v1.5.17",
        "version" : "2.0"
    },
    "scene" : 0,
    "scenes" : [
        {
            "name" : "Scene",
            "nodes" : [
                0,
                1,
                2,
                3
            ]
        }
    ],
    "nodes" : [
        {
            "name" : "Light",
            "rotation" : [
                0.16907575726509094,
                0.7558803558349609,
                -0.27217137813568115,
                0.570947527885437
            ],
            "translation" : [
                4.076245307922363,
                5.903861999511719,
                -1.0054539442062378
            ]
        },
        {
            "name" : "Camera",
            "rotation" : [
                0.483536034822464,
                0.33687159419059753,
                -0.20870360732078552,
                0.7804827094078064
            ],
            "translation" : [
                7.358891487121582,
                4.958309173583984,
                6.925790786743164
            ]
        },
        {
            "mesh" : 0,
            "name" : "path86",
            "scale" : [
                5.436167240142822,
                5.436167240142822,
                5.436167240142822
            ]
        },
        {
            "mesh" : 1,
            "name" : "path88",
            "scale" : [
                5.436167240142822,
                5.436167240142822,
                5.436167240142822
            ]
        }
    ],
    "materials" : [
        {
            "doubleSided" : true,
            "name" : "SVGMat.005",
            "pbrMetallicRoughness" : {
                "baseColorFactor" : [
                    0,
                    0,
                    0,
                    1
                ],
                "metallicFactor" : 0,
                "roughnessFactor" : 0.4000000059604645
            }
        },
        {
            "doubleSided" : true,
            "name" : "SVGMat.006",
            "pbrMetallicRoughness" : {
                "baseColorFactor" : [
                    1,
                    0.09084171056747437,
                    0.09084171056747437,
                    1
                ],
                "metallicFactor" : 0,
                "roughnessFactor" : 0.4000000059604645
            }
        }
    ],
    "meshes" : [
        {
            "name" : "path86",
            "primitives" : [
                {
                    "attributes" : {
                        "POSITION" : 0,
                        "NORMAL" : 1,
                        "TEXCOORD_0" : 2
                    },
                    "indices" : 3,
                    "material" : 0
                }
            ]
        },
        {
            "name" : "path88",
            "primitives" : [
                {
                    "attributes" : {
                        "POSITION" : 4,
                        "NORMAL" : 5,
                        "TEXCOORD_0" : 6
                    },
                    "indices" : 7,
                    "material" : 1
                }
            ]
        }
    ],
    "accessors" : [
        {
            "bufferView" : 0,
            "componentType" : 5126,
            "count" : 3763,
            "max" : [
                0.12837861478328705,
                0.019999999552965164,
                -0.006169073283672333
            ],
            "min" : [
                0.010778570547699928,
                -0.019999999552965164,
                -0.13686290383338928
            ],
            "type" : "VEC3"
        },
        {
            "bufferView" : 1,
            "componentType" : 5126,
            "count" : 3763,
            "type" : "VEC3"
        },
        {
            "bufferView" : 2,
            "componentType" : 5126,
            "count" : 3763,
            "type" : "VEC2"
        },
        {
            "bufferView" : 3,
            "componentType" : 5123,
            "count" : 6972,
            "type" : "SCALAR"
        },
        {
            "bufferView" : 4,
            "componentType" : 5126,
            "count" : 2341,
            "max" : [
                0.12389812618494034,
                0.019999999552965164,
                -0.010755009949207306
            ],
            "min" : [
                0.015351884067058563,
                -0.019999999552965164,
                -0.13238877058029175
            ],
            "type" : "VEC3"
        },
        {
            "bufferView" : 5,
            "componentType" : 5126,
            "count" : 2341,
            "type" : "VEC3"
        },
        {
            "bufferView" : 6,
            "componentType" : 5126,
            "count" : 2341,
            "type" : "VEC2"
        },
        {
            "bufferView" : 7,
            "componentType" : 5123,
            "count" : 4236,
            "type" : "SCALAR"
        }
    ],
    "bufferViews" : [
        {
            "buffer" : 0,
            "byteLength" : 45156,
            "byteOffset" : 0
        },
        {
            "buffer" : 0,
            "byteLength" : 45156,
            "byteOffset" : 45156
        },
        {
            "buffer" : 0,
            "byteLength" : 30104,
            "byteOffset" : 90312
        },
        {
            "buffer" : 0,
            "byteLength" : 13944,
            "byteOffset" : 120416
        },
        {
            "buffer" : 0,
            "byteLength" : 28092,
            "byteOffset" : 134360
        },
        {
            "buffer" : 0,
            "byteLength" : 28092,
            "byteOffset" : 162452
        },
        {
            "buffer" : 0,
            "byteLength" : 18728,
            "byteOffset" : 190544
        },
        {
            "buffer" : 0,
            "byteLength" : 8472,
            "byteOffset" : 209272
        }
    ],
    "buffers" : [
        {
            "byteLength" : 217744,
            "uri" : "letterA.bin"
        }
    ]
}
