{
    "asset" : {
        "generator" : "Khronos glTF Blender I/O v1.5.17",
        "version" : "2.0"
    },
    "scene" : 0,
    "scenes" : [
        {
            "name" : "Scene",
            "nodes" : [
                0,
                1,
                2,
                3,
                4,
                5,
                6,
                7,
                8,
                9,
                10,
                11,
                12,
                13
            ]
        }
    ],
    "nodes" : [
        {
            "name" : "Point",
            "translation" : [
                -0.5271150469779968,
                0.2836586534976959,
                0.21531343460083008
            ]
        },
        {
            "name" : "Spot.002",
            "rotation" : [
                0.012736678123474121,
                0.0186990387737751,
                0.06555812805891037,
                0.9975923299789429
            ],
            "translation" : [
                -0.2136857658624649,
                1.7283681631088257,
                0
            ]
        },
        {
            "name" : "Spot.001",
            "rotation" : [
                -0.1838586926460266,
                -0.037711769342422485,
                0.39540812373161316,
                0.8991252779960632
            ],
            "translation" : [
                -0.5749189853668213,
                0.6849748492240906,
                -0.29575464129447937
            ]
        },
        {
            "name" : "Spot",
            "rotation" : [
                -0.2153245210647583,
                0.2431812733411789,
                -0.6503526568412781,
                0.6866875290870667
            ],
            "translation" : [
                1.12230384349823,
                0.823380708694458,
                -0.9362033009529114
            ]
        },
        {
            "name" : "Camera",
            "rotation" : [
                0.4856528639793396,
                -0.44415202736854553,
                0.31554266810417175,
                0.6835957169532776
            ],
            "translation" : [
                -0.7784972786903381,
                0.4779806435108185,
                0.34575584530830383
            ]
        },
        {
            "mesh" : 0,
            "name" : "Plane",
            "scale" : [
                2.958815813064575,
                2.958815813064575,
                2.958815813064575
            ]
        },
        {
            "mesh" : 1,
            "name" : "Pumpkin",
            "rotation" : [
                0.4532267153263092,
                -0.5195585489273071,
                0.5560182929039001,
                0.4642069935798645
            ],
            "scale" : [
                0.15566805005073547,
                0.15566805005073547,
                0.15566805005073547
            ],
            "translation" : [
                0,
                0.1172177642583847,
                0
            ]
        },
        {
            "mesh" : 0,
            "name" : "Plane.001",
            "scale" : [
                2.958815813064575,
                2.958815813064575,
                2.958815813064575
            ]
        },
        {
            "mesh" : 1,
            "name" : "Pumpkin.001",
            "rotation" : [
                0.4532267153263092,
                -0.5195585489273071,
                0.5560182929039001,
                0.4642069935798645
            ],
            "scale" : [
                0.5617917776107788,
                0.5617917776107788,
                0.5617917776107788
            ],
            "translation" : [
                0,
                0.1172177642583847,
                0
            ]
        },
        {
            "name" : "Camera.001",
            "rotation" : [
                0.4973004460334778,
                -0.4987080991268158,
                0.4553329646587372,
                0.5446599125862122
            ],
            "translation" : [
                -0.9794366955757141,
                0.25162598490715027,
                0.1044035404920578
            ]
        },
        {
            "name" : "Point.001",
            "translation" : [
                -0.2981993556022644,
                0.2337648719549179,
                0.3018825054168701
            ]
        },
        {
            "name" : "Spot.004",
            "rotation" : [
                -0.1838586926460266,
                -0.037711769342422485,
                0.39540812373161316,
                0.8991252779960632
            ],
            "translation" : [
                -0.5749189853668213,
                0.6849748492240906,
                -0.29575464129447937
            ]
        },
        {
            "name" : "Spot.005",
            "rotation" : [
                -0.0927991271018982,
                -0.37750792503356934,
                0.2627849280834198,
                0.8830742835998535
            ],
            "translation" : [
                -0.6718354225158691,
                1.3853555917739868,
                -0.4293956160545349
            ]
        },
        {
            "name" : "Spot.003",
            "rotation" : [
                -0.2153245210647583,
                0.2431812733411789,
                -0.6503526568412781,
                0.6866875290870667
            ],
            "translation" : [
                1.12230384349823,
                0.823380708694458,
                -0.9362033009529114
            ]
        }
    ],
    "materials" : [
        {
            "doubleSided" : true,
            "name" : "Material.002",
            "pbrMetallicRoughness" : {}
        },
        {
            "doubleSided" : true,
            "name" : "Pumpkin",
            "pbrMetallicRoughness" : {}
        }
    ],
    "meshes" : [
        {
            "name" : "Plane",
            "primitives" : [
                {
                    "attributes" : {
                        "POSITION" : 0,
                        "NORMAL" : 1
                    },
                    "indices" : 2,
                    "material" : 0
                }
            ]
        },
        {
            "name" : "Pumpkin",
            "primitives" : [
                {
                    "attributes" : {
                        "POSITION" : 3,
                        "NORMAL" : 4,
                        "TEXCOORD_0" : 5
                    },
                    "indices" : 6,
                    "material" : 1
                }
            ]
        }
    ],
    "accessors" : [
        {
            "bufferView" : 0,
            "componentType" : 5126,
            "count" : 4,
            "max" : [
                1,
                0,
                1
            ],
            "min" : [
                -1,
                0,
                -1
            ],
            "type" : "VEC3"
        },
        {
            "bufferView" : 1,
            "componentType" : 5126,
            "count" : 4,
            "type" : "VEC3"
        },
        {
            "bufferView" : 2,
            "componentType" : 5123,
            "count" : 6,
            "type" : "SCALAR"
        },
        {
            "bufferView" : 3,
            "componentType" : 5126,
            "count" : 5710,
            "max" : [
                1.1627463102340698,
                1.1755485534667969,
                0.7628598809242249
            ],
            "min" : [
                -1.1553254127502441,
                -1.17096745967865,
                -1.4369760751724243
            ],
            "type" : "VEC3"
        },
        {
            "bufferView" : 4,
            "componentType" : 5126,
            "count" : 5710,
            "type" : "VEC3"
        },
        {
            "bufferView" : 5,
            "componentType" : 5126,
            "count" : 5710,
            "type" : "VEC2"
        },
        {
            "bufferView" : 6,
            "componentType" : 5123,
            "count" : 32748,
            "type" : "SCALAR"
        }
    ],
    "bufferViews" : [
        {
            "buffer" : 0,
            "byteLength" : 48,
            "byteOffset" : 0
        },
        {
            "buffer" : 0,
            "byteLength" : 48,
            "byteOffset" : 48
        },
        {
            "buffer" : 0,
            "byteLength" : 12,
            "byteOffset" : 96
        },
        {
            "buffer" : 0,
            "byteLength" : 68520,
            "byteOffset" : 108
        },
        {
            "buffer" : 0,
            "byteLength" : 68520,
            "byteOffset" : 68628
        },
        {
            "buffer" : 0,
            "byteLength" : 45680,
            "byteOffset" : 137148
        },
        {
            "buffer" : 0,
            "byteLength" : 65496,
            "byteOffset" : 182828
        }
    ],
    "buffers" : [
        {
            "byteLength" : 248324,
            "uri" : "pumpkin.bin"
        }
    ]
}
