<?xml version="1.0" encoding="UTF-8" standalone="no"?>
<!-- Created with Inkscape (http://www.inkscape.org/) -->

<svg
   xmlns:dc="http://purl.org/dc/elements/1.1/"
   xmlns:cc="http://creativecommons.org/ns#"
   xmlns:rdf="http://www.w3.org/1999/02/22-rdf-syntax-ns#"
   xmlns:svg="http://www.w3.org/2000/svg"
   xmlns="http://www.w3.org/2000/svg"
   xmlns:sodipodi="http://sodipodi.sourceforge.net/DTD/sodipodi-0.dtd"
   xmlns:inkscape="http://www.inkscape.org/namespaces/inkscape"
   version="1.1"
   id="svg76"
   width="512"
   height="512"
   viewBox="0 0 512 512"
   sodipodi:docname="letterA.svg"
   inkscape:version="0.92.4 (5da689c313, 2019-01-14)">
  <metadata
     id="metadata82">
    <rdf:RDF>
      <cc:Work
         rdf:about="">
        <dc:format>image/svg+xml</dc:format>
        <dc:type
           rdf:resource="http://purl.org/dc/dcmitype/StillImage" />
        <dc:title></dc:title>
      </cc:Work>
    </rdf:RDF>
  </metadata>
  <defs
     id="defs80" />
  <sodipodi:namedview
     pagecolor="#ffffff"
     bordercolor="#666666"
     borderopacity="1"
     objecttolerance="10"
     gridtolerance="10"
     guidetolerance="10"
     inkscape:pageopacity="0"
     inkscape:pageshadow="2"
     inkscape:window-width="1920"
     inkscape:window-height="1121"
     id="namedview78"
     showgrid="false"
     inkscape:zoom="1.7539062"
     inkscape:cx="256"
     inkscape:cy="256"
     inkscape:window-x="-9"
     inkscape:window-y="-9"
     inkscape:window-maximized="1"
     inkscape:current-layer="svg76" />
  <path
     style="fill:#000000"
     d="m 78.218134,488.82885 c -3.310483,-0.72082 -7.718359,-2.0206 -9.795279,-2.88839 C 62.040333,483.27367 52.984987,476.30437 48.720599,470.77693 37.579913,456.33653 35.523567,442.93919 41.334259,422.65406 44.6844,410.95871 177.06941,75.306628 181.94455,66.147409 192.9934,45.389267 207.35011,33.261952 226.3018,28.67823 c 9.40256,-2.274134 28.70865,-2.294317 37.43539,-0.03914 10.81432,2.794656 20.45595,8.148282 28.59022,15.875041 11.96616,11.36668 17.02738,20.489207 30.91273,55.718259 5.10864,12.96132 34.70511,86.34104 65.76994,163.06604 31.06483,76.725 57.69487,142.875 59.17787,147 6.88662,19.1553 8.47828,34.51742 4.68818,45.24873 -10.09442,28.5814 -42.94982,42.34017 -69.79699,29.22871 -16.03718,-7.83214 -23.11985,-20.82699 -49.586,-90.97744 l -5.28188,-14 h -82.95007 -82.95007 l -8.76994,23.5 c -13.52441,36.24014 -17.71185,46.59579 -23.65524,58.5 -9.02534,18.07718 -17.30787,24.69718 -34.362136,27.46471 -7.776471,1.26195 -9.741927,1.21263 -17.30567,-0.4343 z m 21.22636,-16.03613 c 10.819076,-3.21292 16.637926,-14.11199 37.855936,-70.90649 l 14.22932,-38.08779 93.49477,-0.25511 c 88.3495,-0.24107 93.53341,-0.15852 94.19685,1.5 0.38614,0.96531 5.77524,15.03011 11.97577,31.25511 22.46329,58.77993 27.7267,68.90232 38.88093,74.7744 4.55984,2.4005 6.26263,2.71655 14.65912,2.72079 8.3552,0.004 10.17779,-0.32805 15.12454,-2.75736 6.32182,-3.10459 13.60303,-10.32335 16.8681,-16.7234 4.31646,-8.46097 3.45655,-20.23872 -2.73899,-37.51443 -1.38071,-3.85 -27.47586,-68.65 -57.98921,-144 C 345.48827,197.44844 315.88749,124.05522 310.2221,109.70239 295.85139,73.295268 291.23155,64.692101 280.83835,54.983421 270.84939,45.65235 258.4002,41.744245 241.23719,42.551651 c -11.92697,0.561084 -18.89715,2.79326 -27.44482,8.789104 -12.86235,9.022423 -16.96058,16.77857 -40.39917,76.457685 -10.15241,25.85 -39.91532,101.45 -66.13979,168 -26.224463,66.55 -48.85557,124.375 -50.291343,128.5 -3.378494,9.70647 -3.805605,24.46257 -0.868341,30 4.091202,7.71288 14.690254,16.63685 22.643468,19.06487 4.289161,1.30943 15.4083,1.00305 20.7073,-0.57059 z M 169.08567,312.54361 c 0.38759,-0.62714 68.52342,-190.11185 73.44229,-204.24189 l 1.56537,-4.49672 1.22262,2.99672 c 0.67244,1.6482 17.67523,48.02791 37.78398,103.06603 20.10874,55.03812 36.85158,100.82562 37.2063,101.75 0.60062,1.56519 -4.58939,1.68069 -75.52107,1.68069 -41.8913,0 -75.95607,-0.33967 -75.69949,-0.75483 z m 128.44344,-16.55333 c -0.55896,-2.92404 -51.90721,-143.91838 -52.79792,-144.97493 -0.60925,-0.72267 -52.994,143.80888 -52.994,146.21248 0,0.74738 16.03663,1.07061 53.11658,1.07061 h 53.11657 z"
     id="path86"
     inkscape:connector-curvature="0" />
  <path
     style="fill:#ff5555;stroke-width:0.57015592"
     d="m 81.737636,473.56008 c -6.021713,-0.81859 -14.391803,-5.99207 -20.35425,-12.58079 -6.120613,-6.7635 -7.78816,-12.62139 -6.667998,-23.42388 1.154607,-11.13468 -6.749572,9.63516 86.103942,-226.25563 52.77194,-134.065094 54.02197,-137.073095 61.60398,-148.240537 2.44617,-3.602941 8.13052,-9.183976 12.14158,-11.920901 3.46777,-2.366219 11.26619,-5.983149 14.65591,-6.797455 8.80616,-2.115489 23.30379,-2.020057 32.05626,0.211013 11.31932,2.885381 22.2206,11.369028 29.64257,23.06859 5.39872,8.510251 6.84732,11.894868 34.64067,80.93744 12.18716,30.27461 37.97704,94.17169 57.31085,141.99352 44.76083,110.71508 50.50525,125.09483 52.61393,131.70601 4.86744,15.2606 4.68946,26.43278 -0.54991,34.51862 -1.00735,1.55463 -3.8346,4.80201 -6.28277,7.2164 -3.39248,3.34567 -5.62823,4.97304 -9.39969,6.84187 l -4.94848,2.45206 h -9.48012 -9.48013 l -4.32175,-2.13592 c -7.5649,-3.73878 -12.88354,-10.70484 -19.79485,-25.92623 -4.54595,-10.01196 -8.70557,-20.37559 -21.20314,-52.82731 -5.90214,-15.32573 -10.8789,-28.0127 -11.05946,-28.19326 -0.8891,-0.88912 -31.77316,-1.12815 -106.10631,-0.82125 l -81.58251,0.33685 -9.60135,25.70561 c -22.52806,60.31417 -29.43016,75.1416 -37.6283,80.83493 -4.03708,2.80362 -14.536258,4.35683 -22.308674,3.30025 z M 316.91481,312.98223 c 1.6742,-0.20105 3.16054,-0.66924 3.30298,-1.04043 0.24318,-0.63372 -70.48535,-194.79585 -75.50019,-207.26118 l -0.57344,-1.42539 -0.56012,1.42539 c -0.30807,0.78397 -3.26091,8.99421 -6.56188,18.24499 -13.43035,37.63786 -66.66148,185.5197 -67.97105,188.83093 -0.32057,0.81057 0.0586,0.99898 2.37502,1.18008 4.87728,0.38134 142.33415,0.42443 145.48868,0.0456 z"
     id="path88"
     inkscape:connector-curvature="0" />
</svg>
