<?xml version="1.0" encoding="UTF-8" standalone="no"?>
<!-- Created with Inkscape (http://www.inkscape.org/) -->

<svg
   xmlns:dc="http://purl.org/dc/elements/1.1/"
   xmlns:cc="http://creativecommons.org/ns#"
   xmlns:rdf="http://www.w3.org/1999/02/22-rdf-syntax-ns#"
   xmlns:svg="http://www.w3.org/2000/svg"
   xmlns="http://www.w3.org/2000/svg"
   xmlns:sodipodi="http://sodipodi.sourceforge.net/DTD/sodipodi-0.dtd"
   xmlns:inkscape="http://www.inkscape.org/namespaces/inkscape"
   version="1.1"
   id="svg10"
   width="512"
   height="512"
   viewBox="0 0 512 512"
   sodipodi:docname="letterB.svg"
   inkscape:version="0.92.4 (5da689c313, 2019-01-14)">
  <metadata
     id="metadata16">
    <rdf:RDF>
      <cc:Work
         rdf:about="">
        <dc:format>image/svg+xml</dc:format>
        <dc:type
           rdf:resource="http://purl.org/dc/dcmitype/StillImage" />
      </cc:Work>
    </rdf:RDF>
  </metadata>
  <defs
     id="defs14" />
  <sodipodi:namedview
     pagecolor="#ffffff"
     bordercolor="#666666"
     borderopacity="1"
     objecttolerance="10"
     gridtolerance="10"
     guidetolerance="10"
     inkscape:pageopacity="0"
     inkscape:pageshadow="2"
     inkscape:window-width="1920"
     inkscape:window-height="1121"
     id="namedview12"
     showgrid="false"
     inkscape:zoom="1.7539062"
     inkscape:cx="256"
     inkscape:cy="256"
     inkscape:window-x="-9"
     inkscape:window-y="-9"
     inkscape:window-maximized="1"
     inkscape:current-layer="svg10" />
  <path
     style="fill:#000000"
     d="m 119.45136,489.69919 c -14.52328,-2.07387 -28.758934,-8.90094 -35.005394,-16.78774 -4.29452,-5.42227 -8.71126,-15.27199 -10.76172,-23.99958 -1.66226,-7.07525 -1.77222,-18.86643 -1.77222,-190.04327 0,-203.859291 -0.4995,-189.210872 6.98445,-204.827243 4.35129,-9.079633 10.60868,-15.337018 19.68831,-19.688315 15.012514,-7.19455 11.528214,-6.984445 115.827244,-6.984445 97.97286,0 104.41225,0.233684 126.18841,4.579344 59.63196,11.900181 99.9151,61.448687 97.49599,119.920659 -0.28444,6.875 -1.2187,15.73922 -2.07614,19.69828 -5.95439,27.49298 -21.42492,50.6122 -44.85826,67.03633 -4.2625,2.98753 -7.75,5.56946 -7.75,5.73761 0,0.16815 3.4875,1.96067 7.75,3.98337 20.41756,9.68884 40.7274,27.14591 51.18226,43.99309 10.61403,17.10364 15.63615,33.96023 16.72044,56.12159 2.3901,48.85019 -19.72485,92.42551 -59.67735,117.58831 -22.62593,14.25022 -50.48804,21.17465 -95.97535,23.85226 -20.70091,1.21857 -175.22508,1.06715 -183.96067,-0.18025 z m 197.46067,-32.75956 c 33.20374,-3.50969 54.69899,-9.25871 71.66439,-19.16704 28.39594,-16.58412 47.22098,-44.63409 52.95443,-78.90399 4.23989,-25.3426 -5.73557,-54.67079 -25.12526,-73.86913 -13.55783,-13.42403 -30.74522,-22.86462 -57.74356,-31.71706 -9.4875,-3.11084 -17.25,-6.02124 -17.25,-6.46755 0,-0.44632 1.0125,-1.13009 2.25,-1.5195 5.43444,-1.71007 28.93686,-13.7292 36.0172,-18.41919 25.6625,-16.99874 38.73943,-38.62536 41.78673,-69.10689 2.32742,-23.28073 -2.94596,-45.31078 -15.349,-64.121982 -10.96721,-16.63352 -23.957,-27.987501 -42.06291,-36.765903 -16.88764,-8.187738 -33.34487,-11.412803 -66.44029,-13.020069 -25.31079,-1.229208 -159.69257,-1.233977 -172.30948,-0.0061 -13.11354,1.276193 -20.12662,4.029476 -26.501394,10.404244 -6.49009,6.490088 -9.19438,13.514054 -10.41621,27.054419 -1.24567,13.804624 -1.19019,331.916191 0.0596,341.554721 2.94605,22.7208 11.908064,31.94345 33.965774,34.9536 9.67039,1.31968 181.02123,0.54216 194.5,-0.88257 z m -155.5,-107.57103 v -73.5 h 60.77623 c 59.99314,0 69.38635,0.39516 84.86074,3.56997 32.96615,6.76351 52.1716,23.03566 58.93066,49.93003 2.34147,9.31676 2.36189,28.38165 0.0407,38 -2.88003,11.93396 -8.02313,20.97366 -17.15208,30.1471 -6.92603,6.9598 -9.62676,8.88047 -18.53191,13.17931 -5.73337,2.76771 -13.82301,5.9626 -17.97697,7.09977 -16.77135,4.59123 -24.66353,5.03605 -89.69735,5.0555 l -61.25002,0.0183 z m 127.14405,56.45725 c 36.23493,-3.64854 55.55261,-16.60324 61.33529,-41.1323 1.71821,-7.2883 1.98133,-23.08362 0.51538,-30.93846 -4.28111,-22.93901 -25.36897,-36.85739 -61.78394,-40.77855 -6.11542,-0.65851 -30.5557,-1.10794 -60.25,-1.10794 h -49.96078 v 57.5 57.5 h 49.89405 c 27.44172,0 54.55422,-0.46924 60.25,-1.04275 z M 161.41203,160.93654 V 94.868598 h 51.39405 c 52.63206,0 64.22667,0.56349 82.70103,4.01924 25.61087,4.790682 38.84826,12.829372 47.15404,28.635292 5.03512,9.58184 7.05296,18.53983 7.06078,31.34547 0.0122,19.99287 -6.90563,36.0037 -21.32381,49.3524 -9.08538,8.41145 -17.20685,12.20515 -33.98609,15.87557 -8.91177,1.94942 -13.32353,2.10379 -71.25,2.493 l -61.75,0.41491 z m 116.78941,48.87213 c 26.21837,-2.8618 37.85408,-8.60259 47.42526,-23.39854 6.19989,-9.58433 8.13303,-17.53859 7.50352,-30.87467 -0.61209,-12.96723 -1.5807,-16.73885 -5.99512,-23.34417 -4.11988,-6.1646 -10.867,-10.64935 -20.68992,-13.7524 -19.4198,-6.13472 -35.85781,-7.5507 -87.78315,-7.56174 l -40.25,-0.009 v 50 50 h 45.03941 c 24.94974,0 49.37079,-0.47278 54.75,-1.05993 z"
     id="path56"
     inkscape:connector-curvature="0" />
  <path
     style="fill:#ff5555;stroke-width:0.57015592"
     d="m 124.86414,457.60174 c -17.84924,-1.20261 -28.873751,-8.53088 -33.278492,-22.12106 -2.644137,-8.1581 -2.712517,-9.03751 -3.289205,-42.30117 -0.770366,-44.43513 -0.255609,-308.85557 0.613244,-315.011136 1.58264,-11.21254 4.492664,-17.910384 10.28024,-23.66147 6.324353,-6.284477 12.912543,-8.937038 25.409163,-10.230326 9.25525,-0.957836 106.46057,-1.413361 145.08465,-0.679898 31.46883,0.597586 46.73974,1.434413 59.29622,3.249361 28.8383,4.168369 52.55104,16.759505 69.26325,36.77783 19.98253,23.935609 27.42917,53.338619 21.39374,84.473139 -2.43358,12.55393 -7.53107,24.77283 -14.28175,34.23399 -6.50924,9.12275 -17.17303,18.877 -27.93312,25.55062 -5.92238,3.67317 -23.62158,12.83499 -30.19714,15.63124 -7.22013,3.07036 -7.27042,3.23797 -1.62619,5.41937 2.61913,1.01225 9.55777,3.47693 15.4192,5.47707 10.65044,3.63433 19.93256,7.36847 26.39489,10.61852 21.31693,10.72076 36.17848,24.98762 45.29604,43.48354 11.29413,22.91131 12.32873,44.34052 3.39204,70.2579 -5.80711,16.84125 -14.85511,31.11932 -27.42305,43.27458 -17.68849,17.10765 -37.7889,26.21286 -69.72019,31.58227 -18.28153,3.07413 -22.73886,3.36138 -61.57683,3.96825 -40.48965,0.63269 -143.16214,0.63765 -152.51671,0.007 z m 125.71938,-34.77017 c 37.73279,-0.4953 43.65186,-0.81288 54.02172,-2.89849 10.63891,-2.13971 26.14358,-8.31742 34.39663,-13.70507 4.84747,-3.16447 12.43387,-10.51228 16.70986,-16.18436 4.09073,-5.42634 8.32838,-14.21689 10.1696,-21.09577 1.46938,-5.48962 1.52611,-6.25259 1.52611,-20.52561 0,-14.25053 -0.0584,-15.03972 -1.51003,-20.39867 -6.63569,-24.49727 -23.97225,-40.02785 -52.88182,-47.37302 -17.5495,-4.45887 -26.06679,-4.8922 -96.49889,-4.90958 l -55.16258,-0.0136 v 73.83519 73.83519 l 25.79955,-0.0361 c 14.18976,-0.0199 42.73319,-0.2584 63.42985,-0.53007 z m 24.51742,-196.711 c 14.59804,-0.55811 21.5855,-1.72274 32.75616,-5.45963 7.21087,-2.41223 11.71766,-4.8499 17.36333,-9.3916 18.26388,-14.69253 26.84172,-36.1304 24.33565,-60.81997 -1.5599,-15.36793 -8.39607,-29.46708 -18.2142,-37.56552 -9.9056,-8.17061 -27.00214,-13.740348 -50.5401,-16.465047 -10.83859,-1.254649 -40.72458,-1.96325 -83.67038,-1.983836 l -35.77728,-0.01715 v 66.469923 66.46992 l 50.31626,-0.36786 c 27.67394,-0.20232 56.21769,-0.59347 63.43056,-0.86923 z"
     id="path60"
     inkscape:connector-curvature="0" />
</svg>
