<?xml version="1.0" encoding="UTF-8" standalone="no"?>
<!-- Created with Inkscape (http://www.inkscape.org/) -->

<svg
   xmlns:dc="http://purl.org/dc/elements/1.1/"
   xmlns:cc="http://creativecommons.org/ns#"
   xmlns:rdf="http://www.w3.org/1999/02/22-rdf-syntax-ns#"
   xmlns:svg="http://www.w3.org/2000/svg"
   xmlns="http://www.w3.org/2000/svg"
   xmlns:sodipodi="http://sodipodi.sourceforge.net/DTD/sodipodi-0.dtd"
   xmlns:inkscape="http://www.inkscape.org/namespaces/inkscape"
   version="1.1"
   id="svg98"
   width="512"
   height="512"
   viewBox="0 0 512 512"
   sodipodi:docname="letterD.svg"
   inkscape:version="0.92.4 (5da689c313, 2019-01-14)">
  <metadata
     id="metadata104">
    <rdf:RDF>
      <cc:Work
         rdf:about="">
        <dc:format>image/svg+xml</dc:format>
        <dc:type
           rdf:resource="http://purl.org/dc/dcmitype/StillImage" />
        <dc:title></dc:title>
      </cc:Work>
    </rdf:RDF>
  </metadata>
  <defs
     id="defs102" />
  <sodipodi:namedview
     pagecolor="#ffffff"
     bordercolor="#666666"
     borderopacity="1"
     objecttolerance="10"
     gridtolerance="10"
     guidetolerance="10"
     inkscape:pageopacity="0"
     inkscape:pageshadow="2"
     inkscape:window-width="1920"
     inkscape:window-height="1121"
     id="namedview100"
     showgrid="false"
     inkscape:zoom="1.7539062"
     inkscape:cx="256"
     inkscape:cy="256"
     inkscape:window-x="-9"
     inkscape:window-y="-9"
     inkscape:window-maximized="1"
     inkscape:current-layer="svg98" />
  <path
     style="fill:#000000"
     d="M 115.24687,494.94485 C 98.195279,492.84848 87.286089,488.1678 78.978248,479.38348 72.498379,472.53198 68.532706,463.97757 66.283755,452 64.613758,443.10586 64.5,430.98875 64.5,262 V 81.5 l 2.180206,-8.164393 C 73.575462,47.514388 87.41482,36.341234 116.6693,32.977094 132.60686,31.144343 271.12258,32.274761 289,34.383474 c 49.95841,5.892794 78.56575,18.593158 109.36053,48.551122 32.94763,32.052324 52.72308,74.026024 60.60081,128.626174 5.63814,39.07769 4.23412,88.70589 -3.55532,125.67034 -10.07616,47.81603 -29.89631,83.5508 -63.15836,113.87148 -20.31253,18.51628 -49.51382,32.81691 -79.24766,38.80964 -24.85721,5.00987 -30.58076,5.29448 -113,5.6191 -42.625,0.16788 -80.76391,-0.096 -84.75313,-0.58648 z M 289.5,478.08494 c 44.36792,-5.89268 72.61378,-19.02222 100.05485,-46.50856 C 423.75851,397.31629 441.35145,353.4954 445.99259,291 449.48028,244.03629 443.66333,194.46531 430.67266,160.44647 420.78125,134.54368 408.31862,115.24624 389.03458,95.973015 360.61697,67.571347 336.96302,56.493986 291.5,50.296669 279.92942,48.71942 269.3187,48.523216 195,48.512284 118.43393,48.50102 111.03298,48.644599 105.87606,50.241289 94.334363,53.814836 86.219319,61.754992 82.259325,73.349054 80.610424,78.1767 80.481828,89.703586 80.210478,257 c -0.299556,184.68581 -0.232479,188.24285 3.795704,201.28459 3.271013,10.59031 12.53987,17.69662 26.463418,20.28917 9.43627,1.75702 165.32549,1.33139 179.0304,-0.48882 z M 155,264.02464 V 103.82366 l 49.25,0.43785 c 43.79658,0.38937 50.68948,0.6693 62.25,2.52806 32.88863,5.288 48.43924,12.18193 65.13155,28.87424 20.94012,20.94012 31.58354,45.6619 36.95489,85.83619 2.15428,16.11271 2.49011,58.61797 0.59255,75 -5.00659,43.22305 -17.67962,74.48566 -39.34092,97.04857 -12.17998,12.68696 -23.42925,19.56208 -40.17589,24.55397 -15.76341,4.69881 -20.26436,5.01732 -78.91218,5.5842 L 155,424.22561 Z m 120.49146,141.62381 c 20.34513,-4.78704 31.97316,-11.07992 44.09835,-23.86525 24.32103,-25.64514 35.40852,-63.30949 35.40852,-120.2832 0,-50.03774 -7.64741,-80.986 -26.04503,-105.40148 C 314.2391,136.5713 298.88212,128.15868 268.5,122.98193 253.58285,120.44022 220.53361,118.8074 192,119.20238 l -21.5,0.29762 -0.25698,143 c -0.14134,78.65 -0.0288,143.59947 0.25014,144.33215 0.81611,2.14385 95.38725,1.0777 104.9983,-1.1837 z"
     id="path108"
     inkscape:connector-curvature="0" />
  <path
     style="fill:#ff5555;stroke-width:0.57015592"
     d="M 117.73719,478.69158 C 107.95217,478.24887 102.7338,476.89382 96.428835,473.15847 87.134434,467.65202 83.030157,459.39723 81.46795,443.06815 79.831861,425.96682 80.404273,83.286274 82.082176,75.355364 c 1.831647,-8.65761 9.481844,-18.146613 18.067064,-22.409679 8.11834,-4.031228 3.75032,-3.855262 95.69931,-3.855262 89.27911,0 86.89724,-0.07077 106.18091,3.154916 30.53493,5.107753 50.79919,13.547464 70.8525,29.50885 7.33522,5.838447 24.4292,22.987781 30.24054,30.338461 25.47512,32.22309 38.63406,71.19033 42.74329,126.57461 0.73913,9.96197 0.73778,40.28063 -0.002,50.17372 -4.91063,65.64961 -22.41667,108.92627 -58.24872,143.99658 -25.73135,25.18434 -51.65779,37.6829 -91.08493,43.91002 -7.66295,1.21029 -12.02585,1.47876 -31.6925,1.9502 -25.28928,0.60622 -133.6651,0.60166 -147.10022,-0.006 z M 244.02673,423.3716 c 29.28434,-0.70992 33.79985,-1.25715 47.89309,-5.80404 9.34788,-3.01591 15.47967,-5.89337 22.45715,-10.53847 6.29113,-4.18817 16.69814,-13.89641 22.18078,-20.69145 16.91451,-20.96344 27.39677,-48.77699 32.44656,-86.09354 1.1678,-8.62972 1.27369,-11.67044 1.28053,-36.77506 0.008,-29.78378 -0.38111,-36.39168 -3.08976,-52.45434 -4.80083,-28.46956 -13.57501,-49.85527 -27.34462,-66.64826 -4.17612,-5.09306 -13.50495,-14.30824 -17.99745,-17.77819 -11.00574,-8.50067 -24.35224,-13.9932 -43.36548,-17.84633 -19.18689,-3.88831 -27.29628,-4.34717 -87.05769,-4.92596 l -36.91759,-0.35755 v 160.5597 160.5597 l 33.78174,-0.33703 c 18.57995,-0.18537 43.65968,-0.5765 55.73274,-0.86918 z"
     id="path110"
     inkscape:connector-curvature="0" />
</svg>
