{
    "asset" : {
        "generator" : "Khronos glTF Blender I/O v1.5.17",
        "version" : "2.0"
    },
    "scene" : 0,
    "scenes" : [
        {
            "name" : "Scene",
            "nodes" : [
                0,
                1,
                2,
                3
            ]
        }
    ],
    "nodes" : [
        {
            "name" : "Light",
            "rotation" : [
                0.16907575726509094,
                0.7558803558349609,
                -0.27217137813568115,
                0.570947527885437
            ],
            "translation" : [
                4.076245307922363,
                5.903861999511719,
                -1.0054539442062378
            ]
        },
        {
            "name" : "Camera",
            "rotation" : [
                0.483536034822464,
                0.33687159419059753,
                -0.20870360732078552,
                0.7804827094078064
            ],
            "translation" : [
                7.358891487121582,
                4.958309173583984,
                6.925790786743164
            ]
        },
        {
            "mesh" : 0,
            "name" : "path64",
            "scale" : [
                5.697953224182129,
                5.697953224182129,
                5.697953224182129
            ]
        },
        {
            "mesh" : 1,
            "name" : "path66",
            "scale" : [
                5.697953224182129,
                5.697953224182129,
                5.697953224182129
            ]
        }
    ],
    "materials" : [
        {
            "doubleSided" : true,
            "name" : "SVGMat.005",
            "pbrMetallicRoughness" : {
                "baseColorFactor" : [
                    0,
                    0,
                    0,
                    1
                ],
                "metallicFactor" : 0,
                "roughnessFactor" : 0.4000000059604645
            }
        },
        {
            "doubleSided" : true,
            "name" : "SVGMat.006",
            "pbrMetallicRoughness" : {
                "baseColorFactor" : [
                    1,
                    0.09084171056747437,
                    0.09084171056747437,
                    1
                ],
                "metallicFactor" : 0,
                "roughnessFactor" : 0.4000000059604645
            }
        }
    ],
    "meshes" : [
        {
            "name" : "path64",
            "primitives" : [
                {
                    "attributes" : {
                        "POSITION" : 0,
                        "NORMAL" : 1,
                        "TEXCOORD_0" : 2
                    },
                    "indices" : 3,
                    "material" : 0
                }
            ]
        },
        {
            "name" : "path66",
            "primitives" : [
                {
                    "attributes" : {
                        "POSITION" : 4,
                        "NORMAL" : 5,
                        "TEXCOORD_0" : 6
                    },
                    "indices" : 7,
                    "material" : 1
                }
            ]
        }
    ],
    "accessors" : [
        {
            "bufferView" : 0,
            "componentType" : 5126,
            "count" : 4422,
            "max" : [
                0.13070908188819885,
                0.019999999552965164,
                -0.005777021404355764
            ],
            "min" : [
                0.017614169046282768,
                -0.019999999552965164,
                -0.13649478554725647
            ],
            "type" : "VEC3"
        },
        {
            "bufferView" : 1,
            "componentType" : 5126,
            "count" : 4422,
            "type" : "VEC3"
        },
        {
            "bufferView" : 2,
            "componentType" : 5126,
            "count" : 4422,
            "type" : "VEC2"
        },
        {
            "bufferView" : 3,
            "componentType" : 5123,
            "count" : 7776,
            "type" : "SCALAR"
        },
        {
            "bufferView" : 4,
            "componentType" : 5126,
            "count" : 2751,
            "max" : [
                0.1262245774269104,
                0.019999999552965164,
                -0.010386422276496887
            ],
            "min" : [
                0.022131074219942093,
                -0.019999999552965164,
                -0.131896510720253
            ],
            "type" : "VEC3"
        },
        {
            "bufferView" : 5,
            "componentType" : 5126,
            "count" : 2751,
            "type" : "VEC3"
        },
        {
            "bufferView" : 6,
            "componentType" : 5126,
            "count" : 2751,
            "type" : "VEC2"
        },
        {
            "bufferView" : 7,
            "componentType" : 5123,
            "count" : 4884,
            "type" : "SCALAR"
        }
    ],
    "bufferViews" : [
        {
            "buffer" : 0,
            "byteLength" : 53064,
            "byteOffset" : 0
        },
        {
            "buffer" : 0,
            "byteLength" : 53064,
            "byteOffset" : 53064
        },
        {
            "buffer" : 0,
            "byteLength" : 35376,
            "byteOffset" : 106128
        },
        {
            "buffer" : 0,
            "byteLength" : 15552,
            "byteOffset" : 141504
        },
        {
            "buffer" : 0,
            "byteLength" : 33012,
            "byteOffset" : 157056
        },
        {
            "buffer" : 0,
            "byteLength" : 33012,
            "byteOffset" : 190068
        },
        {
            "buffer" : 0,
            "byteLength" : 22008,
            "byteOffset" : 223080
        },
        {
            "buffer" : 0,
            "byteLength" : 9768,
            "byteOffset" : 245088
        }
    ],
    "buffers" : [
        {
            "byteLength" : 254856,
            "uri" : "data:application/octet-stream;base64,"
        }
    ]
}
